<?xml version="1.0" encoding="UTF-8" standalone="no"?>
<svg
   id="_レイヤー_2"
   viewBox="0 0 512 512"
   version="1.1"
   sodipodi:docname="icon_512.svg"
   width="512"
   height="512"
   inkscape:version="1.2 (dc2aedaf03, 2022-05-15)"
   inkscape:export-filename="icon_512.png"
   inkscape:export-xdpi="96"
   inkscape:export-ydpi="96"
   xmlns:inkscape="http://www.inkscape.org/namespaces/inkscape"
   xmlns:sodipodi="http://sodipodi.sourceforge.net/DTD/sodipodi-0.dtd"
   xmlns="http://www.w3.org/2000/svg"
   xmlns:svg="http://www.w3.org/2000/svg">
  <defs
     id="defs16">
    <rect
       x="7.9088473"
       y="33.914207"
       width="64.745308"
       height="26.675604"
       id="rect3329" />
  </defs>
  <sodipodi:namedview
     id="namedview14"
     pagecolor="#ffffff"
     bordercolor="#000000"
     borderopacity="0.25"
     inkscape:showpageshadow="true"
     inkscape:pageopacity="0.0"
     inkscape:pagecheckerboard="true"
     inkscape:deskcolor="#d1d1d1"
     showgrid="false"
     borderlayer="true"
     inkscape:zoom="1"
     inkscape:cx="-91.5"
     inkscape:cy="72"
     inkscape:window-width="2560"
     inkscape:window-height="1369"
     inkscape:window-x="-8"
     inkscape:window-y="-8"
     inkscape:window-maximized="1"
     inkscape:current-layer="_レイヤー_1-2" />
  <g
     id="_レイヤー_1-2">
    <g
       id="g3526"
       transform="matrix(4,0,0,4,96,47.999988)">
      <path
         id="rect231"
         style="fill:#ffffff;fill-opacity:1;stroke:#000000;stroke-width:4.87673"
         d="M 2.4383659,2.4383659 H 58.780817 L 77.561634,20.96328 v 80.59836 H 2.4383659 Z"
         sodipodi:nodetypes="cccccc" />
      <g
         id="g8"
         transform="matrix(0.47832219,0,0,0.47832219,8.324385,49.716348)">
        <path
           d="M 109.419,89.64 68.016,17.928 c -0.706,-1.222 -1.765,-1.834 -2.823,-1.834 -1.058,0 -2.117,0.611 -2.823,1.834 L 20.967,89.64 c -0.381,0.659 -0.541,1.314 -0.539,1.925 0.006,1.656 1.3,2.965 3.362,2.965 h 10.776 c 2.003,0 3.825,-1.244 4.554,-3.11 L 56.218,47.672 c 0.716,-1.834 2.185,-1.523 2.097,0.444 L 56.43,90.558 c -0.106,2.383 1.414,3.972 3.799,3.972 h 46.367 c 2.062,0 3.356,-1.309 3.362,-2.965 0.002,-0.611 -0.158,-1.266 -0.539,-1.925 z"
           fill="#e50012"
           id="path6" />
      </g>
      <text
         xml:space="preserve"
         id="text3327"
         style="white-space:pre;shape-inside:url(#rect3329);display:inline;fill:#000000;fill-opacity:1;stroke:#000000;stroke-width:0.7;stroke-dasharray:none;stroke-opacity:1"><tspan
           x="7.9082031"
           y="94.650147"
           id="tspan226"><tspan
             dx="0 28.947891 22.513"
             style="font-size:37.3333px;-inkscape-font-specification:'sans-serif, Normal'"
             id="tspan224">GPX</tspan></tspan></text>
      <text
         xml:space="preserve"
         style="font-style:normal;font-variant:normal;font-weight:normal;font-stretch:normal;font-size:37.3333px;font-family:sans-serif;-inkscape-font-specification:'sans-serif, Normal';font-variant-ligatures:normal;font-variant-caps:normal;font-variant-numeric:normal;font-variant-east-asian:normal;fill:#000000;fill-opacity:1;stroke:#000000;stroke-width:0.7;stroke-dasharray:none;stroke-opacity:1"
         x="6.3002677"
         y="53.040215"
         id="text3385"><tspan
           sodipodi:role="line"
           id="tspan3383"
           x="6.3002677"
           y="53.040215"
           style="font-style:normal;font-variant:normal;font-weight:normal;font-stretch:normal;font-size:32px;font-family:sans-serif;-inkscape-font-specification:'sans-serif, Normal';font-variant-ligatures:normal;font-variant-caps:normal;font-variant-numeric:normal;font-variant-east-asian:normal">GPX</tspan></text>
      <path
         style="fill:none;fill-opacity:1;stroke:#000000;stroke-width:5;stroke-dasharray:none;stroke-opacity:1"
         d="m 58.813672,2.5134052 0.100536,18.3646098 18.80027,0.06702"
         id="path3482"
         sodipodi:nodetypes="ccc" />
    </g>
  </g>
</svg>
