<?xml version="1.0" encoding="UTF-8" standalone="no"?>
<svg
   id="_レイヤー_2"
   viewBox="0 0 512 512"
   version="1.1"
   sodipodi:docname="icon_512.svg"
   width="512"
   height="512"
   inkscape:version="1.3.2 (091e20ef0f, 2023-11-25, custom)"
   inkscape:export-filename="icon_512.png"
   inkscape:export-xdpi="96"
   inkscape:export-ydpi="96"
   xmlns:inkscape="http://www.inkscape.org/namespaces/inkscape"
   xmlns:sodipodi="http://sodipodi.sourceforge.net/DTD/sodipodi-0.dtd"
   xmlns="http://www.w3.org/2000/svg"
   xmlns:svg="http://www.w3.org/2000/svg">
  <defs
     id="defs16">
    <rect
       x="7.9088473"
       y="33.914207"
       width="64.745308"
       height="26.675604"
       id="rect3329" />
  </defs>
  <sodipodi:namedview
     id="namedview14"
     pagecolor="#ffffff"
     bordercolor="#000000"
     borderopacity="0.25"
     inkscape:showpageshadow="true"
     inkscape:pageopacity="0.0"
     inkscape:pagecheckerboard="true"
     inkscape:deskcolor="#d1d1d1"
     showgrid="false"
     borderlayer="true"
     inkscape:zoom="2"
     inkscape:cx="57.75"
     inkscape:cy="238.75"
     inkscape:window-width="2560"
     inkscape:window-height="1368"
     inkscape:window-x="0"
     inkscape:window-y="0"
     inkscape:window-maximized="1"
     inkscape:current-layer="g3526" />
  <g
     id="_レイヤー_1-2">
    <g
       id="g3526"
       transform="matrix(4,0,0,4,96,47.999988)">
      <path
         id="rect231"
         style="display:inline;fill:#ffffff;fill-opacity:1;stroke:#000000;stroke-width:4.87673"
         d="M 2.4383659,2.4383659 H 58.780817 L 77.561634,20.96328 v 80.59836 H 2.4383659 Z"
         sodipodi:nodetypes="cccccc" />
      <path
         d="M 109.419,89.64 68.016,17.928 c -0.706,-1.222 -1.765,-1.834 -2.823,-1.834 -1.058,0 -2.117,0.611 -2.823,1.834 L 20.967,89.64 c -0.381,0.659 -0.541,1.314 -0.539,1.925 0.006,1.656 1.3,2.965 3.362,2.965 h 10.776 c 2.003,0 3.825,-1.244 4.554,-3.11 L 56.218,47.672 c 0.716,-1.834 2.185,-1.523 2.097,0.444 L 56.43,90.558 c -0.106,2.383 1.414,3.972 3.799,3.972 h 46.367 c 2.062,0 3.356,-1.309 3.362,-2.965 0.002,-0.611 -0.158,-1.266 -0.539,-1.925 z"
         fill="#e50012"
         id="path6"
         transform="matrix(0.4783222,0,0,0.4783222,8.324385,49.716348)" />
      <path
         style="font-size:32px;-inkscape-font-specification:'sans-serif, Normal';stroke:#000000;stroke-width:0.7"
         d="m 21.728004,40.976215 h 7.904 v 11.2 q -1.856,0.608 -3.744,0.896 -1.888,0.288 -4.288,0.288 -3.552,0 -5.984,-1.408 -2.432,-1.44 -3.712,-4.064 -1.248,-2.656 -1.248,-6.272 0,-3.584 1.408,-6.208 1.408,-2.624 4.032,-4.064 2.656,-1.472 6.4,-1.472 1.92,0 3.616,0.352 1.728,0.352 3.2,0.992 l -1.088,2.496 q -1.216,-0.544 -2.752,-0.928 -1.504,-0.384 -3.136,-0.384 -4.096,0 -6.4,2.464 -2.272,2.464 -2.272,6.752 0,2.72 0.864,4.832 0.896,2.08 2.784,3.264 1.888,1.152 4.96,1.152 1.504,0 2.56,-0.16 1.056,-0.16 1.92,-0.384 v -6.784 h -5.024 z m 19.424021,-10.784 q 4.48,0 6.528,1.76 2.048,1.76 2.048,4.96 0,1.888 -0.864,3.552 -0.832,1.632 -2.848,2.656 -1.984,1.024 -5.408,1.024 h -2.624 v 8.896 h -2.88 v -22.848 z m -0.256,2.464 h -2.912 v 9.024 h 2.304 q 3.264,0 4.864,-1.056 1.6,-1.056 1.6,-3.584 0,-2.208 -1.408,-3.296 -1.408,-1.088 -4.448,-1.088 z m 28.44797,20.384 h -3.264 l -6.048,-9.92 -6.144,9.92 h -3.04 l 7.584,-11.904 -7.104,-10.944 h 3.2 l 5.6,8.96 5.632,-8.96 h 3.04 l -7.072,10.88 z"
         id="text3385"
         aria-label="GPX" />
      <path
         style="fill:none;fill-opacity:1;stroke:#000000;stroke-width:5;stroke-dasharray:none;stroke-opacity:1"
         d="m 58.813672,2.5134052 0.100536,18.3646098 18.80027,0.06702"
         id="path3482"
         sodipodi:nodetypes="ccc" />
    </g>
  </g>
</svg>
