<?xml version="1.0" encoding="UTF-8" standalone="no"?>
<!-- Created with Inkscape (http://www.inkscape.org/) -->

<svg
   width="256"
   height="256"
   viewBox="0 0 67.733334 67.733333"
   version="1.1"
   id="svg5"
   inkscape:version="1.2 (dc2aedaf03, 2022-05-15)"
   sodipodi:docname="icon_256.svg"
   inkscape:export-filename="icon_256.png"
   inkscape:export-xdpi="96"
   inkscape:export-ydpi="96"
   xmlns:inkscape="http://www.inkscape.org/namespaces/inkscape"
   xmlns:sodipodi="http://sodipodi.sourceforge.net/DTD/sodipodi-0.dtd"
   xmlns="http://www.w3.org/2000/svg"
   xmlns:svg="http://www.w3.org/2000/svg">
  <sodipodi:namedview
     id="namedview7"
     pagecolor="#ffffff"
     bordercolor="#000000"
     borderopacity="0.25"
     inkscape:showpageshadow="2"
     inkscape:pageopacity="0.0"
     inkscape:pagecheckerboard="true"
     inkscape:deskcolor="#d1d1d1"
     inkscape:document-units="mm"
     showgrid="false"
     inkscape:zoom="1.829812"
     inkscape:cx="92.359215"
     inkscape:cy="164.49777"
     inkscape:window-width="2560"
     inkscape:window-height="1369"
     inkscape:window-x="-8"
     inkscape:window-y="-8"
     inkscape:window-maximized="1"
     inkscape:current-layer="layer1" />
  <defs
     id="defs2">
    <inkscape:path-effect
       effect="fill_between_many"
       method="originald"
       linkedpaths="#path934,0,1"
       id="path-effect971"
       is_visible="true"
       lpeversion="0"
       join="true"
       close="true"
       autoreverse="true" />
  </defs>
  <g
     inkscape:label="Layer 1"
     inkscape:groupmode="layer"
     id="layer1">
    <flowRoot
       xml:space="preserve"
       id="flowRoot903"
       style="font-style:normal;font-variant:normal;font-weight:normal;font-stretch:normal;font-size:42.6667px;line-height:1.25;font-family:sans-serif;-inkscape-font-specification:'sans-serif, Normal';font-variant-ligatures:normal;font-variant-caps:normal;font-variant-numeric:normal;font-feature-settings:normal;text-align:start;letter-spacing:0px;word-spacing:0px;writing-mode:lr-tb;text-anchor:start;fill:#000000;fill-opacity:1;stroke:none"
       transform="matrix(0.26458333,0,0,0.26458333,-16.662193,11.98488)"><flowRegion
         id="flowRegion905"
         style="font-style:normal;font-variant:normal;font-weight:normal;font-stretch:normal;font-size:42.6667px;font-family:sans-serif;-inkscape-font-specification:'sans-serif, Normal';font-variant-ligatures:normal;font-variant-caps:normal;font-variant-numeric:normal;font-feature-settings:normal;text-align:start;writing-mode:lr-tb;text-anchor:start"><rect
           id="rect907"
           width="91"
           height="47"
           x="141"
           y="183"
           style="font-style:normal;font-variant:normal;font-weight:normal;font-stretch:normal;font-size:42.66666794px;font-family:sans-serif;-inkscape-font-specification:'sans-serif, Normal';font-variant-ligatures:normal;font-variant-caps:normal;font-variant-numeric:normal;font-feature-settings:normal;text-align:start;writing-mode:lr-tb;text-anchor:start" /></flowRegion><flowPara
         id="flowPara909">TCX</flowPara></flowRoot>
    <path
       inkscape:original-d="M 0,0"
       inkscape:path-effect="#path-effect971"
       d="m 66.04359,294.40042 c 0,0 1.416681,0 1.416681,-1.42838 V 242.99087 L 54.713044,230.13849 H 22.141015 c 0,0 -1.416685,0 -1.416685,1.42836 v 61.40226 c 0,1.43131 1.416685,1.43131 1.416685,1.43131 z"
       id="path973"
       class="UnoptimicedTransforms"
       style="fill:#ffffff;fill-opacity:1"
       transform="translate(-1.9870662,-228.40279)" />
    <path
       inkscape:connector-curvature="0"
       d="m 66.04359,294.40042 c 0,0 1.416681,0 1.416681,-1.42838 V 242.99087 L 54.713044,230.13849 H 22.141015 c 0,0 -1.416685,0 -1.416685,1.42836 v 61.40226 c 0,1.43131 1.416685,1.43131 1.416685,1.43131 z M 23.645326,233.05948 h 29.209963 v 8.76299 c 0,2.921 2.920999,2.921 2.920999,2.921 h 8.762987 v 46.73596 H 23.645326 Z"
       id="path934"
       style="fill:#000000;fill-opacity:1;stroke-width:0.0811388"
       class="UnoptimicedTransforms"
       transform="translate(-1.9870662,-228.40279)" />
    <rect
       style="fill:#a8ffee;fill-opacity:1;stroke:#000000;stroke-width:1.32292;stroke-miterlimit:4;stroke-dasharray:none;stroke-opacity:1"
       id="rect1048"
       width="32.464508"
       height="15.654529"
       x="2.6758003"
       y="43.350536"
       rx="1.3543289"
       ry="1.236807" />
    <g
       aria-label="GPX"
       transform="matrix(0.26458333,0,0,0.26458333,4.3835318,37.01622)"
       style="font-style:normal;font-variant:normal;font-weight:normal;font-stretch:normal;font-size:42.6667px;line-height:1.25;font-family:sans-serif;-inkscape-font-specification:'sans-serif, Normal';font-variant-ligatures:normal;font-variant-caps:normal;font-variant-numeric:normal;font-feature-settings:normal;text-align:start;letter-spacing:0px;word-spacing:0px;writing-mode:lr-tb;text-anchor:start;fill:#000000;fill-opacity:1;stroke:none"
       id="flowRoot874">
      <path
         d="m 39.666668,63.96159 q -1.541667,1.916666 -4.479167,3.541666 -3.479167,1.875 -7.583334,1.875 -6.583333,0 -10.708333,-4.395833 -4.062501,-4.3125 -4.062501,-11.3125 0,-7.208334 4.229167,-11.687501 4.041667,-4.3125 10.145834,-4.3125 8.4375,0 11.9375,7.3125 l -3.395833,1.583334 q -2.625,-5.645834 -8.479167,-5.645834 -4.354167,0 -7.270834,3.291667 -3.0625,3.520834 -3.0625,9.4375 0,5.312501 2.6875,8.708334 3,3.75 8.187501,3.75 5.5625,0 8.354166,-3.375 v -5.9375 h -6.770833 v -2.895834 h 10.270834 z"
         id="path952"
         inkscape:connector-curvature="0" />
      <path
         d="m 46.5,38.274089 h 8.875 q 11.645834,0 11.645834,8.75 0,9.25 -11.875,9.25 H 50.25 V 68.753256 H 46.5 Z m 3.75,15.020834 h 4.1875 q 8.666667,0 8.666667,-6.229167 0,-5.770834 -8.041667,-5.770834 H 50.25 Z"
         id="path954"
         inkscape:connector-curvature="0" />
      <path
         d="M 96.958334,68.753256 H 92.062501 L 83.354167,56.024089 74.8125,68.753256 H 70 l 11.083334,-15.375 -10.791667,-15.104167 h 4.791667 l 8.395833,12.541667 8.458334,-12.541667 h 4.770833 l -10.916667,15.0625 z"
         id="path956"
         inkscape:connector-curvature="0" />
    </g>
    <path
       style="fill:none;stroke:#a8a8a8;stroke-width:2.64583;stroke-dasharray:none;stroke-opacity:1"
       d="m 57.28753,60.631134 c 2.044897,-10.531207 2.76061,-15.438957 3.374077,-20.346703 0.4694,-3.755213 1.226938,-13.394064 1e-6,-14.723243 -1.226936,-1.329183 -2.760609,-2.35163 -5.316727,-2.044896 -2.556119,0.306734 -6.855582,3.451384 -8.281826,6.339175 -1.426244,2.887791 6.804806,14.823489 5.725706,17.586095 -1.0791,2.762605 -4.699582,6.700754 -8.179579,7.054887 C 41.129186,54.850583 40.622477,36.723615 37.656538,32.718319 34.690599,28.713022 25.301422,31.371782 25.489414,21.369152 25.649668,12.842359 29.92002,8.9634561 35.509399,6.1346849"
       id="path2099"
       sodipodi:nodetypes="cssszzzssc" />
    <path
       style="fill:none;stroke:#ff0000;stroke-width:1.32292;stroke-opacity:1"
       d="M 57.389774,59.915422 60.763852,26.2769 55.958349,23.005068 46.858566,30.162201 53.095497,47.339318 44.200202,54.496451 37.861029,33.025053 25.387169,24.129761 34.895931,6.441419"
       id="path4197" />
  </g>
</svg>
