<?xml version="1.0" encoding="UTF-8" standalone="no"?>
<svg
   xmlns:dc="http://purl.org/dc/elements/1.1/"
   xmlns:cc="http://creativecommons.org/ns#"
   xmlns:rdf="http://www.w3.org/1999/02/22-rdf-syntax-ns#"
   xmlns:svg="http://www.w3.org/2000/svg"
   xmlns="http://www.w3.org/2000/svg"
   height="400"
   width="400"
   id="svg4543"
   version="1.1"
   viewBox="0 0 400 400">
  <metadata
     id="metadata4547">
    <rdf:RDF>
      <cc:Work
         rdf:about="">
        <dc:format>image/svg+xml</dc:format>
        <dc:type
           rdf:resource="http://purl.org/dc/dcmitype/StillImage" />
        <dc:title></dc:title>
      </cc:Work>
    </rdf:RDF>
  </metadata>
  <defs
     id="defs4533">
    <style
       id="style4531">.cls-1{fill:none;stroke:#fff;stroke-linecap:round;stroke-linejoin:round;stroke-width:2px;}</style>
  </defs>
  <g
     style="stroke:#091a26;stroke-opacity:1;fill:#000000;fill-opacity:0"
     transform="matrix(4.3598515,0,0,4.3598515,0.01856446,-0.6896919)"
     data-name="Layer 2"
     id="Layer_2">
    <g
       style="stroke:#091a26;stroke-opacity:1;fill:#000000;fill-opacity:0"
       data-name="Layer 1"
       id="Layer_1-2">
      <path
         style="fill:#000000;stroke:#091a26;stroke-width:2px;stroke-linecap:round;stroke-linejoin:round;stroke-opacity:1;fill-opacity:0"
         id="path4535"
         d="M 44.91,54.37 H 50.42 L 54.54,48.83 60,57.14 66.88,43.29 72.38,62.68 76.51,54.37 H 83.39"
         class="cls-1" />
      <path
         style="fill:#000000;stroke:#091a26;stroke-width:2px;stroke-linecap:round;stroke-linejoin:round;stroke-opacity:1;fill-opacity:0"
         id="path4537"
         d="M 47.92,17.23 A 6.46,6.46 0 1 1 41.46,10.72 6.49,6.49 0 0 1 47.92,17.23 M 26,59.08 C 23.64,62.28 20.46,67.3 17.9,70.38 14.9,73.99 11.24,76.53 8.06,79.98 A 3.8,3.8 0 0 1 3.3,81 3.55,3.55 0 0 1 1.47,77 4.05,4.05 0 0 1 2.57,75 C 9.46,69.32 13.16,66.24 17.33,57.71 17.54,57.3 19.33,53.02 19.94,51.21 M 33.67,65.19 C 31.62,63.39 29.67,61.73 27.77,60.03 26.31,58.75 24.83,57.47 23.4,56.14 19.23,52.28 19.33,49.42 21.25,45.55 23.04,41.93 24.46,38.14 26.05,34.42 A 2,2 0 0 0 26,34 C 23.64,34 21.49,34.19 20.37,36.88 A 23.2,23.2 0 0 1 17.91,40.95 C 16.66,42.78 14.7,43.31 13.17,42.33 11.64,41.35 11.34,39.74 12.49,37.64 13.92,35.01 15.42,32.42 16.88,29.8 A 5,5 0 0 1 20.8,27.14 C 24.43,26.61 28,26 31.66,25.57 A 11.74,11.74 0 0 1 39.66,27.57 C 42.5,29.57 45.14,31.81 48.01,34.07 49.51,31.95 51.1,29.65 52.7,27.36 54.1,25.36 55.87,24.81 57.49,25.83 59.11,26.85 59.56,28.92 58.22,31.01 56.05,34.41 53.79,37.75 51.49,41.06 50.17,42.95 48.6,43.24 46.49,42.06 44.16,40.77 41.86,39.4 39.31,37.92 36.64,42.43 34.03,46.87 31.31,51.51 33.97,54.17 36.61,56.79 39.23,59.42 42.07,62.28 42.4,64.69 40.45,68.16 38.5,71.63 36.45,75.3 34.38,78.85 33,81.27 30.92,82.05 29,81 27.08,79.95 26.56,77.56 28,75.1 29.87,71.87 31.75,68.65 33.73,65.24"
         class="cls-1" />
      <path
         style="fill:#000000;stroke:#091a26;stroke-width:2px;stroke-linecap:round;stroke-linejoin:round;stroke-opacity:1;fill-opacity:0"
         id="path4539"
         d="M 16.88,80.28 A 44.88,44.88 0 1 0 5.06,64.68"
         class="cls-1" />
    </g>
  </g>
</svg>
