<svg xmlns="http://www.w3.org/2000/svg" width="500" height="185" viewBox="0 0 491 185"><path d="m444.152 65.203-25.226-5.867-4.504-1.805-115.77.903v55.949l145.5.453Zm0 0" style="stroke:none;fill-rule:nonzero;fill:#fff;fill-opacity:1"/><path d="M396.855 109.422c1.352-4.512.899-9.027-1.351-11.734-2.254-2.708-5.406-4.512-9.461-4.961l-78.379-.903c-.453 0-.902-.453-1.351-.453-.45-.45-.45-.902 0-1.351.449-.903.898-1.356 1.8-1.356l78.832-.902c9.457-.45 19.368-8.121 22.973-17.145l4.504-11.734c0-.45.45-.903 0-1.352-4.953-23.011-25.676-40.16-50-40.16-22.524 0-41.895 14.442-48.649 34.746-4.507-3.16-9.91-4.965-16.218-4.512-10.813.903-19.371 9.926-20.723 20.754-.45 2.707 0 5.414.453 8.121-17.57.454-31.984 14.891-31.984 32.942 0 1.805 0 3.156.453 4.96 0 .903.898 1.356 1.351 1.356H393.7c.903 0 1.805-.453 1.805-1.355Zm0 0" style="stroke:none;fill-rule:nonzero;fill:#f48120;fill-opacity:1"/><path d="M421.629 58.883h-2.25c-.453 0-.902.453-1.352.902l-3.156 10.832c-1.351 4.512-.898 9.024 1.352 11.73 2.254 2.708 5.406 4.512 9.46 4.966l16.669.902c.449 0 .898.45 1.351.45.45.452.45.901 0 1.355-.453.902-.902 1.351-1.805 1.351l-17.117.902c-9.457.454-19.367 8.122-22.972 17.149l-.899 4.058c-.453.454 0 1.356.899 1.356h59.46c.903 0 1.352-.453 1.352-1.356.902-3.609 1.8-7.668 1.8-11.73 0-23.465-19.366-42.867-42.792-42.867" style="stroke:none;fill-rule:nonzero;fill:#faad3f;fill-opacity:1"/><path d="M470.277 140.105a4.042 4.042 0 0 1-4.05-4.062 4.04 4.04 0 0 1 4.05-4.063 4.04 4.04 0 0 1 4.055 4.063c0 2.254-1.8 4.062-4.055 4.062m0-7.222c-1.8 0-3.152 1.355-3.152 3.16 0 1.805 1.352 3.16 3.152 3.16 1.805 0 3.157-1.355 3.157-3.16 0-1.805-1.352-3.16-3.157-3.16m1.805 5.414h-.902l-.903-1.352h-.898v1.352h-.902v-4.059h2.253c.899 0 1.352.45 1.352 1.352 0 .453-.453.902-.902 1.355Zm-1.352-2.254c.45 0 .45 0 .45-.453 0-.45-.45-.45-.45-.45h-1.351v1.352h1.351ZM66.668 131.98h9.91v27.075h17.117v8.574H66.668Zm37.387 17.598c0-10.375 8.11-18.5 19.37-18.5 11.263 0 18.919 8.125 18.919 18.5 0 10.379-8.106 18.5-19.367 18.5-10.813 0-18.922-8.121-18.922-18.5m28.379 0c0-5.414-3.602-9.926-9.008-9.926-5.406 0-9.008 4.512-9.008 9.477 0 4.96 3.602 9.476 9.008 9.476 5.406.903 9.008-3.613 9.008-9.027m22.074 2.258V131.98h9.91v19.856c0 4.96 2.703 7.672 6.758 7.672 4.05 0 6.754-2.258 6.754-7.223V131.98h9.91v19.856c0 11.73-6.754 16.695-16.664 16.695-10.363-.453-16.668-5.414-16.668-16.695m48.199-19.856h13.965c12.613 0 20.27 7.223 20.27 17.598 0 10.379-7.657 18.05-20.27 18.05h-13.516V131.98Zm13.965 26.625c5.855 0 9.91-3.16 9.91-9.027 0-5.863-4.055-9.023-9.91-9.023h-4.055v18.05Zm34.234-26.625h28.38v8.575h-18.47v5.867h16.668v8.121h-16.668v13.086h-9.91Zm42.344 0h9.91v27.075h17.117v8.574H293.25Zm52.703-.449h9.91l15.317 36.098h-10.813l-2.703-6.316H343.7l-2.703 6.316h-10.36Zm9.008 22.11-4.055-9.926-4.054 9.926Zm28.828-21.66h16.668c5.406 0 9.012 1.355 11.711 4.062 2.254 2.254 3.156 4.965 3.156 8.121 0 5.414-2.703 9.024-7.207 10.828l8.559 12.637h-11.262l-7.207-10.832h-4.508v10.832h-9.91Zm16.219 17.148c3.152 0 5.406-1.805 5.406-4.063 0-2.707-2.254-4.058-5.406-4.058h-6.309v8.57h6.309Zm29.281-17.149h28.828v8.125h-18.922v5.415h17.121v8.12h-17.12v5.415h19.37v8.574H429.29ZM45.047 154.09c-1.352 3.16-4.504 5.418-8.11 5.418-5.406 0-9.007-4.516-9.007-9.477 0-4.965 3.601-9.476 9.008-9.476 4.054 0 7.207 2.707 8.558 5.867h10.36c-1.801-8.574-9.008-14.89-18.919-14.89-10.812 0-19.37 8.12-19.37 18.5 0 10.378 8.109 18.5 18.921 18.5 9.457 0 16.664-6.317 18.918-14.442Zm0 0" style="stroke:none;fill-rule:nonzero;fill:#404041;fill-opacity:1"/></svg>