<svg xmlns="http://www.w3.org/2000/svg" width="1066.667" height="1066.667"><defs><clipPath id="a"><path d="M0 800h800V0H0z"/></clipPath></defs><g clip-path="url(#a)" transform="matrix(1.33333 0 0 -1.33333 0 1066.667)"><path d="M670.69 487.753c-10.66 30.367-27.2 58.465-48.246 82.382-21.026 23.94-46.543 43.712-74.714 57.98a246.499 246.499 0 0 1-43.934 17.216 244.611 244.611 0 0 1-46.203 8.4c-7.793.613-15.597.966-23.395.853-3.898.072-7.79-.187-11.68-.33-1.943-.114-3.885-.283-5.825-.422l-2.909-.22-2.902-.317c-15.48-1.583-30.762-4.715-45.589-9.19-29.655-8.994-57.372-23.748-81.242-43.022-17.146-13.815-32.304-29.955-45.002-47.756l.66-1.292c13.603 17.237 29.523 32.547 47.181 45.34 24.35 17.68 51.985 30.557 80.896 37.728 14.46 3.566 29.21 5.804 44.015 6.553l2.774.161 2.778.066c1.853.037 3.702.104 5.553.12 3.703-.06 7.402.003 11.096-.26 7.391-.27 14.748-.987 22.056-1.939a229.46 229.46 0 0 0 42.884-10.08 229.032 229.032 0 0 0 39.937-18.06c25.335-14.51 47.723-33.845 65.658-56.514 17.956-22.654 31.438-48.636 39.504-76.06 8.105-27.414 10.747-56.248 8.114-84.46-2.606-28.197-10.653-55.679-23.532-80.545-12.856-24.878-30.495-47.114-51.491-65.223-20.985-18.128-45.33-32.102-71.252-40.947-25.918-8.882-53.382-12.587-80.522-11.163-27.128 1.377-53.73 7.94-78.035 19.24-24.313 11.267-46.304 27.225-64.478 46.58-18.19 19.34-32.56 42.048-42.066 66.465-7.791 19.93-12.328 40.96-13.566 62.153a204.656 204.656 0 0 0-.337 14.315c.03 6.3.37 12.578.997 18.812l49.463-16.093-36.02 70.758-1.352 2.66-17.388 34.158-31.068-15.815-25.618-13.04L115 461.04l43.307-14.09a269.472 269.472 0 0 1-1.726-32.78c.028-3.352.1-6.702.257-10.045 1.409-34.732 9.513-69.193 23.779-100.685 14.219-31.52 34.513-60.048 59.222-83.722 24.694-23.694 53.832-42.545 85.358-55.215 31.508-12.713 65.375-19.15 98.966-19.108 33.572-.027 67.12 6.335 98.094 18.784 30.994 12.406 59.368 30.79 83.222 53.651 23.873 22.843 43.259 50.154 56.788 80.011 13.56 29.842 21.189 62.207 22.508 94.621 1.353 32.387-3.383 64.931-14.085 95.291" fill="#231916"/><path d="M526.43 354.203c-13.808 0-21.727 15.877-21.727 43.561 0 26.97 8.123 43.071 21.727 43.071 13.604 0 21.726-16.1 21.726-43.07 0-27.685-7.92-43.562-21.726-43.562m0 105.243c-31.92 0-43.291-31.863-43.291-61.682 0-20.263 3.84-35.92 11.418-46.538 7.325-10.264 18.049-15.469 31.873-15.469 27.407 0 43.126 22.601 43.126 62.007 0 38.623-16.122 61.682-43.126 61.682M326.294 353.71c-10.845 0-18.573 5.459-21.203 14.98a.627.627 0 0 1-.596.452H285.04a.617.617 0 0 1-.61-.731c3.772-20.751 19.15-32.654 42.192-32.654 26.886 0 42.306 12.846 42.306 35.246 0 12.875-7.224 23.736-18.852 28.346l-7.277 2.885 7.113 3.266c11.78 5.41 14.254 16.012 14.254 23.953 0 17.94-14.89 29.993-37.051 29.993-19.296 0-32.466-8.828-37.081-24.858a.617.617 0 0 1 .508-.786l17.822-2.506c.254 0 .493.166.58.404 2.397 6.536 8.48 10.285 16.693 10.285 10.306 0 16.965-6.08 16.965-15.488 0-8.34-7.758-16.966-20.741-16.966h-9.835a.627.627 0 0 1-.62-.619v-15.398c0-.336.284-.619.62-.619h11.476c13.636 0 23.533-8.655 23.533-20.577 0-10.782-8.723-18.608-20.741-18.608M404.915 380.112c2.398 8.88 10.645 17.871 21.766 17.871 10.225 0 20.577-7.35 20.577-21.399 0-15.687-10.417-22.708-20.741-22.708-10.117 0-20.753 7.786-21.713 25.18l-.03.536zm22.257 62.036c8.887 0 15.271-3.88 18.461-11.223a.618.618 0 0 1 .567-.372l.139.017 16.62 3.894a.617.617 0 0 1 .44.824c-5.844 15.353-18.989 24.157-36.062 24.157-13.956 0-24.791-5.473-32.203-16.268-7.683-11.19-11.58-27.684-11.58-49.022 0-19.069 3.837-33.8 11.403-43.782 7.352-9.699 18.135-14.616 32.051-14.616 24.126 0 40.337 16.473 40.337 40.992 0 23.462-14.009 38.037-36.56 38.037-12.381 0-18.719-4.085-21.855-7.512l-6.388-6.977.58 9.441c1.376 22.39 13.07 32.41 24.05 32.41M573.876 470.793c0 5.738 4.669 10.407 10.407 10.407 5.739 0 10.407-4.669 10.407-10.407 0-5.739-4.668-10.408-10.407-10.408-5.738 0-10.407 4.67-10.407 10.408m31.967 0c0 11.888-9.671 21.56-21.56 21.56-11.888 0-21.56-9.672-21.56-21.56 0-11.888 9.672-21.56 21.56-21.56 11.889 0 21.56 9.672 21.56 21.56" fill="#231916"/></g></svg>