<svg xmlns="http://www.w3.org/2000/svg" viewBox="0 0 91.96 91.96"><defs><style>.cls-1{fill:none;stroke:#144662;stroke-linecap:round;stroke-linejoin:round;stroke-width:2px;}</style></defs><g id="Layer_2" data-name="Layer 2"><g id="Layer_1-2" data-name="Layer 1"><path class="cls-1" d="M44.91,54.37h5.51l4.12-5.54L60,57.14l6.88-13.85,5.5,19.39,4.13-8.31h6.88"/><path class="cls-1" d="M47.92,17.23a6.46,6.46,0,1,1-6.46-6.51,6.49,6.49,0,0,1,6.46,6.51M26,59.08c-2.36,3.2-5.54,8.22-8.1,11.3-3,3.61-6.66,6.15-9.84,9.6A3.8,3.8,0,0,1,3.3,81a3.55,3.55,0,0,1-1.83-4,4.05,4.05,0,0,1,1.1-2c6.89-5.68,10.59-8.76,14.76-17.29.21-.41,2-4.69,2.61-6.5M33.67,65.19c-2.05-1.8-4-3.46-5.9-5.16-1.46-1.28-2.94-2.56-4.37-3.89-4.17-3.86-4.07-6.72-2.15-10.59,1.79-3.62,3.21-7.41,4.8-11.13A2,2,0,0,0,26,34c-2.36,0-4.51.19-5.63,2.88a23.2,23.2,0,0,1-2.46,4.07c-1.25,1.83-3.21,2.36-4.74,1.38s-1.83-2.59-.68-4.69c1.43-2.63,2.93-5.22,4.39-7.84a5,5,0,0,1,3.92-2.66C24.43,26.61,28,26,31.66,25.57a11.74,11.74,0,0,1,8,2c2.84,2,5.48,4.24,8.35,6.5,1.5-2.12,3.09-4.42,4.69-6.71,1.4-2,3.17-2.55,4.79-1.53s2.07,3.09.73,5.18c-2.17,3.4-4.43,6.74-6.73,10.05-1.32,1.89-2.89,2.18-5,1-2.33-1.29-4.63-2.66-7.18-4.14-2.67,4.51-5.28,8.95-8,13.59,2.66,2.66,5.3,5.28,7.92,7.91,2.84,2.86,3.17,5.27,1.22,8.74s-4,7.14-6.07,10.69C33,81.27,30.92,82.05,29,81s-2.44-3.44-1-5.9c1.87-3.23,3.75-6.45,5.73-9.86"/><path class="cls-1" d="M16.88,80.28A44.88,44.88,0,1,0,5.06,64.68"/></g></g></svg>