<svg xmlns="http://www.w3.org/2000/svg" xmlns:xlink="http://www.w3.org/1999/xlink" width="306" height="108" viewBox="0 0 306 108"><path fill="#fff" d="M84.865 47.839c-.479-.964-1.754-1.751-2.833-1.751h-2.193c-1.077 0-2.337.796-2.803 1.767l-17.386 36.323c-.483.961.042 1.648 1.121 1.648h4.018c1.586 0 2.312-.721 2.742-1.604.431-.884 1.389-2.806 1.572-3.197.248-.53 1.012-.854 2.089-.854l18.707.011c1.078.002 1.771.207 2.09.844.208.415 1.164 2.143 1.634 3.086.474.942 1.27 1.716 2.815 1.716h5.83c1.078 0 1.55-.818 1.162-1.578-.389-.764-18.565-36.411-18.565-36.411zm-10.984 26.722c-1.077 0-1.584-.803-1.131-1.777l6.851-14.678c.456-.977 1.193-.971 1.638.007l6.67 14.677c.445.979-.072 1.781-1.148 1.781l-12.88-.01zm145.328-26.44v36.034c0 .992.881 1.672 1.959 1.672h4.752c1.076 0 1.959-.688 1.959-1.766v-36.014c0-1.079-.697-1.958-1.773-1.958h-4.938c-1.078-.001-1.959.662-1.959 2.032zm-79.617 22.569c-.619-.882-.279-1.856.752-2.163 0 0 4.105-1.23 6.07-2.991 1.966-1.767 2.954-4.318 2.954-7.644 0-2.174-.38-4.002-1.137-5.489-.757-1.483-1.842-2.697-3.254-3.626-1.412-.934-3.102-1.619-5.07-2.048-1.971-.427-4.63-.552-4.63-.552-1.078-.049-2.839-.089-3.915-.089h-19.73c-1.076 0-1.958.879-1.958 1.958v36.014c0 1.078.881 1.766 1.958 1.766h4.669c1.078 0 1.959-.688 1.959-1.766 0 0 .003-14.324.012-14.324l.013-.018c0-.013 8.851-.022 8.851-.022 1.076 0 2.466.72 3.089 1.603l9.188 12.937c.854 1.146 1.666 1.591 2.743 1.591h6.103c1.078 0 1.247-1.016.874-1.543l-9.541-13.594zm-3.715-7.313c-1.209.277-2.57.334-2.57.334-1.076.047-2.837.085-3.915.085h-9.146c-1.078 0-1.959-.882-1.959-1.96v-7.296c0-1.078.881-1.959 1.959-1.959h9.146c1.078 0 2.839.039 3.915.084 0 0 1.361.054 2.57.333 1.209.279 2.168.668 2.87 1.171.705.506 1.208 1.099 1.512 1.781.3.683.453 1.426.453 2.236 0 .807-.153 1.554-.453 2.235-.304.682-.807 1.275-1.512 1.78-.702.506-1.661.901-2.87 1.176zm141.662-17.289c-1.076 0-1.947.71-1.947 1.748 0 .498.012 23.036.012 23.036 0 1.079-.611 1.325-1.359.55l-23.066-23.926c-.748-.776-1.844-1.408-3.32-1.408h-4.338c-1.365 0-1.961.728-1.961 1.465v36.837c0 .734.699 1.436 1.779 1.436h4.344c1.076 0 1.83-.586 1.83-1.578 0-.497.021-24.268.021-24.268 0-1.076.609-1.322 1.355-.545l24.051 25.004c.764.764 1.693 1.387 3.344 1.387h3.264c1.078 0 1.959-.881 1.959-1.959v-35.82c0-1.079-.881-1.958-1.959-1.958h-4.009zm-94.043 22.462c-.523.941-1.383.938-1.9-.005l-11.273-20.706c-.48-.961-1.463-1.751-2.832-1.751h-6.115c-1.078 0-1.961.879-1.961 1.958v35.968c0 1.075.707 1.812 1.961 1.812h3.801c1.078 0 1.855-.68 1.855-1.719 0-.498.016-26.16.057-26.16.043 0 14.074 26.153 14.074 26.153.508.948 1.754.952 2.273.008 0 0 14.146-26.086 14.188-26.086.045 0 .029 25.337.029 26.085 0 1.039.83 1.719 1.91 1.719h4.377c1.08 0 1.959-.537 1.959-1.959v-35.82c0-1.079-.879-1.958-1.959-1.958h-5.861c-1.496 0-2.396.763-2.932 1.7l-11.651 20.761zm-173.831-2.628c0 19.404 19.848 20.389 23.828 20.389 13.171 0 18.737-3.559 18.968-3.713.824-.465 1.827-1.406 1.827-3.167v-13.394c0-1.234-1.005-2.238-2.24-2.238h-16.547c-1.237 0-2.049 1.004-2.049 2.238v1.388c0 1.236.812 2.243 2.049 2.243h9.571c.924 0 1.675.751 1.675 1.674l-.009 6.244c-1.891.771-10.503 3.287-17.423 1.637-10.038-2.4-10.82-10.682-10.82-13.162 0-2.082.624-12.512 12.952-13.567 9.979-.854 16.55 3.175 16.615 3.214 1.173.608 2.387.175 3.041-1.067l1.245-2.523c.517-1.034.343-2.106-.919-2.962-.084-.048-7.079-3.841-17.934-3.841-23.162 0-23.83 18.498-23.83 20.607z"/><defs><path id="a" d="M275.348 36.157l-25.992-.001c-.953 0-1.771-.474-2.248-1.299-.475-.825-.475-1.769.002-2.594l12.996-22.498c.477-.824 1.293-1.296 2.246-1.296s1.77.472 2.246 1.296l12.996 22.499c.477.825.477 1.77 0 2.595-.477.824-1.293 1.298-2.246 1.298z"/></defs><use xlink:href="#a" overflow="visible" fill-rule="evenodd" clip-rule="evenodd" fill="#007DC3"/><clipPath><use xlink:href="#a" overflow="visible"/></clipPath><path fill="#fff" d="M293.219 77.56c2.496 0 4.531 2.034 4.531 4.532s-2.035 4.532-4.531 4.532c-2.5 0-4.533-2.034-4.533-4.532s2.033-4.532 4.533-4.532zm.011 8.385c2.084 0 3.652-1.682 3.652-3.854s-1.568-3.855-3.652-3.855c-2.109 0-3.68 1.684-3.68 3.855s1.571 3.854 3.68 3.854zm-1.746-6.515h2.033c1.219 0 1.822.49 1.822 1.494 0 .854-.541 1.469-1.369 1.469l1.508 2.349h-.918l-1.48-2.349h-.729v2.349h-.867v-5.312zm.868 2.285h1.029c.666 0 1.092-.138 1.092-.828 0-.604-.539-.779-1.092-.779h-1.029v1.607z"/></svg>