<?xml version="1.0" encoding="UTF-8" standalone="no"?>
<!-- Created with Inkscape (http://www.inkscape.org/) -->

<svg
   xmlns:dc="http://purl.org/dc/elements/1.1/"
   xmlns:cc="http://creativecommons.org/ns#"
   xmlns:rdf="http://www.w3.org/1999/02/22-rdf-syntax-ns#"
   xmlns:svg="http://www.w3.org/2000/svg"
   xmlns="http://www.w3.org/2000/svg"
   xmlns:xlink="http://www.w3.org/1999/xlink"
   xmlns:sodipodi="http://sodipodi.sourceforge.net/DTD/sodipodi-0.dtd"
   xmlns:inkscape="http://www.inkscape.org/namespaces/inkscape"
   width="256"
   height="256"
   viewBox="0 0 67.733331 67.733335"
   version="1.1"
   id="svg8"
   inkscape:version="0.92.5 (2060ec1f9f, 2020-04-08)"
   sodipodi:docname="icon256.svg"
   inkscape:export-filename="/home/kei/Documents/GitHub/330k-hugo/static/software/gpx-tcx-converter/icon256.png"
   inkscape:export-xdpi="96"
   inkscape:export-ydpi="96">
  <defs
     id="defs2">
    <style
       id="style899">.cls-1{fill:none;stroke:#144662;stroke-linecap:round;stroke-linejoin:round;stroke-width:2px;}</style>
    <path
       d="M275.348 36.157l-25.992-.001c-.953 0-1.771-.474-2.248-1.299-.475-.825-.475-1.769.002-2.594l12.996-22.498c.477-.824 1.293-1.296 2.246-1.296s1.77.472 2.246 1.296l12.996 22.499c.477.825.477 1.77 0 2.595-.477.824-1.293 1.298-2.246 1.298z"
       id="a" />
    <path
       d="M275.348 36.157l-25.992-.001c-.953 0-1.771-.474-2.248-1.299-.475-.825-.475-1.769.002-2.594l12.996-22.498c.477-.824 1.293-1.296 2.246-1.296s1.77.472 2.246 1.296l12.996 22.499c.477.825.477 1.77 0 2.595-.477.824-1.293 1.298-2.246 1.298z"
       id="a-2" />
  </defs>
  <sodipodi:namedview
     id="base"
     pagecolor="#ffffff"
     bordercolor="#666666"
     borderopacity="1.0"
     inkscape:pageopacity="0.0"
     inkscape:pageshadow="2"
     inkscape:zoom="2"
     inkscape:cx="-1.56304"
     inkscape:cy="135.54087"
     inkscape:document-units="mm"
     inkscape:current-layer="layer1"
     showgrid="false"
     units="px"
     inkscape:window-width="1848"
     inkscape:window-height="1016"
     inkscape:window-x="72"
     inkscape:window-y="27"
     inkscape:window-maximized="1" />
  <metadata
     id="metadata5">
    <rdf:RDF>
      <cc:Work
         rdf:about="">
        <dc:format>image/svg+xml</dc:format>
        <dc:type
           rdf:resource="http://purl.org/dc/dcmitype/StillImage" />
        <dc:title />
      </cc:Work>
    </rdf:RDF>
  </metadata>
  <g
     inkscape:label="レイヤー 1"
     inkscape:groupmode="layer"
     id="layer1"
     transform="translate(0,-229.26665)">
    <path
       inkscape:connector-curvature="0"
       d="M 66.04359,294.40042 C 66.04359,294.40042 67.460271,294.40042 67.460271,292.97204 V 242.99087 L 54.713044,230.13849 H 22.141015 C 22.141015,230.13849 20.72433,230.13849 20.72433,231.56685 V 292.96911 C 20.72433,294.40042 22.141015,294.40042 22.141015,294.40042 Z M 23.645326,233.05948 H 52.855289 V 241.82247 C 52.855289,244.74347 55.776288,244.74347 55.776288,244.74347 H 64.539275 V 291.47943 H 23.645326 Z"
       id="path934"
       style="stroke-width:0.0811388" />
    <g
       id="g829"
       transform="translate(-1.4552083,-9.525)">
      <path
         sodipodi:nodetypes="ccc"
         inkscape:connector-curvature="0"
         id="path1064"
         d="M 8.9902722,266.50106 V 286.17207 H 19.425505"
         style="fill:none;stroke:#000000;stroke-width:1.32291663;stroke-linecap:butt;stroke-linejoin:round;stroke-miterlimit:4;stroke-dasharray:none;stroke-opacity:1" />
      <path
         inkscape:transform-center-y="-2.1369169e-05"
         inkscape:transform-center-x="-1.0787474"
         d="M 12.953018,289.90895 12.953018,286.17206 12.953018,282.43517 16.189262,284.30361 19.425505,286.17206 16.189261,288.0405 Z"
         inkscape:randomized="0"
         inkscape:rounded="0"
         inkscape:flatsided="false"
         sodipodi:arg2="3.1415927"
         sodipodi:arg1="2.0943951"
         sodipodi:r2="2.1574955"
         sodipodi:r1="4.314991"
         sodipodi:cy="286.17206"
         sodipodi:cx="15.110514"
         sodipodi:sides="3"
         id="path1066"
         style="fill:#000000;fill-opacity:1;stroke:#000000;stroke-width:2.06030869;stroke-linecap:butt;stroke-linejoin:round;stroke-miterlimit:4;stroke-dasharray:none;stroke-opacity:1"
         sodipodi:type="star" />
    </g>
    <g
       id="g950"
       transform="translate(-1.8520833,5.159375)">
      <rect
         style="fill:#cdffa8;fill-opacity:1;stroke:#000000;stroke-width:1.32291663;stroke-miterlimit:4;stroke-dasharray:none;stroke-opacity:1"
         id="rect1048"
         width="32.464508"
         height="15.654529"
         x="2.5274043"
         y="236.02277"
         rx="1.3543289"
         ry="1.236807" />
      <g
         aria-label="GPX"
         transform="matrix(0.26458333,0,0,0.26458333,4.2351358,229.68845)"
         style="font-style:normal;font-variant:normal;font-weight:normal;font-stretch:normal;font-size:42.66666794px;line-height:1.25;font-family:sans-serif;-inkscape-font-specification:'sans-serif, Normal';font-variant-ligatures:normal;font-variant-caps:normal;font-variant-numeric:normal;font-feature-settings:normal;text-align:start;letter-spacing:0px;word-spacing:0px;writing-mode:lr-tb;text-anchor:start;fill:#000000;fill-opacity:1;stroke:none"
         id="flowRoot874">
        <path
           d="M 39.666668,63.96159 Q 38.125001,65.878256 35.187501,67.503256 31.708334,69.378256 27.604167,69.378256 21.020834,69.378256 16.895834,64.982423 12.833333,60.669923 12.833333,53.669923 12.833333,46.461589 17.0625,41.982422 21.104167,37.669922 27.208334,37.669922 35.645834,37.669922 39.145834,44.982422 L 35.750001,46.565756 Q 33.125001,40.919922 27.270834,40.919922 22.916667,40.919922 20,44.211589 16.9375,47.732423 16.9375,53.649089 16.9375,58.96159 19.625,62.357423 22.625,66.107423 27.812501,66.107423 33.375001,66.107423 36.166667,62.732423 V 56.794923 H 29.395834 V 53.899089 H 39.666668 Z"
           id="path952"
           inkscape:connector-curvature="0" />
        <path
           d="M 46.5,38.274089 H 55.375 Q 67.020834,38.274089 67.020834,47.024089 67.020834,56.274089 55.145834,56.274089 H 50.25 V 68.753256 H 46.5 Z M 50.25,53.294923 H 54.4375 Q 63.104167,53.294923 63.104167,47.065756 63.104167,41.294922 55.0625,41.294922 H 50.25 Z"
           id="path954"
           inkscape:connector-curvature="0" />
        <path
           d="M 96.958334,68.753256 H 92.062501 L 83.354167,56.024089 74.8125,68.753256 H 70 L 81.083334,53.378256 70.291667,38.274089 H 75.083334 L 83.479167,50.815756 91.937501,38.274089 H 96.708334 L 85.791667,53.336589 Z"
           id="path956"
           inkscape:connector-curvature="0" />
      </g>
    </g>
    <flowRoot
       xml:space="preserve"
       id="flowRoot903"
       style="font-style:normal;font-variant:normal;font-weight:normal;font-stretch:normal;font-size:42.66666794px;line-height:1.25;font-family:sans-serif;-inkscape-font-specification:'sans-serif, Normal';font-variant-ligatures:normal;font-variant-caps:normal;font-variant-numeric:normal;font-feature-settings:normal;text-align:start;letter-spacing:0px;word-spacing:0px;writing-mode:lr-tb;text-anchor:start;fill:#000000;fill-opacity:1;stroke:none"
       transform="matrix(0.26458333,0,0,0.26458333,0,229.26665)"><flowRegion
         id="flowRegion905"
         style="font-style:normal;font-variant:normal;font-weight:normal;font-stretch:normal;font-size:42.66666794px;font-family:sans-serif;-inkscape-font-specification:'sans-serif, Normal';font-variant-ligatures:normal;font-variant-caps:normal;font-variant-numeric:normal;font-feature-settings:normal;text-align:start;writing-mode:lr-tb;text-anchor:start"><rect
           id="rect907"
           width="91"
           height="47"
           x="141"
           y="183"
           style="font-style:normal;font-variant:normal;font-weight:normal;font-stretch:normal;font-size:42.66666794px;font-family:sans-serif;-inkscape-font-specification:'sans-serif, Normal';font-variant-ligatures:normal;font-variant-caps:normal;font-variant-numeric:normal;font-feature-settings:normal;text-align:start;writing-mode:lr-tb;text-anchor:start" /></flowRegion><flowPara
         id="flowPara909">TCX</flowPara></flowRoot>    <path
       style="fill:#040404;fill-opacity:1;stroke-width:0.14041176"
       inkscape:connector-curvature="0"
       d="M 34.921259,274.35754 C 34.852817,274.22453 34.67064,274.11593 34.516468,274.11593 H 34.203123 C 34.049237,274.11593 33.869203,274.22576 33.802619,274.35975 L 31.318436,279.37167 C 31.249423,279.50428 31.324438,279.59907 31.478609,279.59907 H 32.052718 C 32.279332,279.59907 32.383065,279.49959 32.444506,279.37775 32.506089,279.25578 32.642972,278.99057 32.66912,278.93662 32.704555,278.86349 32.813718,278.81878 32.967604,278.81878 L 35.640538,278.8203 C 35.794567,278.82057 35.893585,278.84886 35.939165,278.93676 35.968885,278.99402 36.105482,279.23245 36.172638,279.36257 36.240364,279.49255 36.3541,279.59935 36.574856,279.59935 H 37.40787 C 37.561899,279.59935 37.629341,279.48648 37.573902,279.38161 37.51832,279.27619 34.921259,274.35754 34.921259,274.35754 Z M 33.351819,278.0447 C 33.197934,278.0447 33.125491,277.9339 33.190218,277.7995 L 34.169117,275.7742 C 34.234272,275.63939 34.339578,275.64022 34.403161,275.77517 L 35.356198,277.80033 C 35.419781,277.93542 35.34591,278.04608 35.192167,278.04608 Z M 54.116878,274.39645 V 279.3685 C 54.116878,279.50538 54.242759,279.5992 54.396788,279.5992 H 55.075773 C 55.229516,279.5992 55.355683,279.50428 55.355683,279.35553 V 274.38624 C 55.355683,274.23736 55.256093,274.11607 55.102349,274.11607 H 54.396788 C 54.242759,274.11593 54.116878,274.20741 54.116878,274.39645 Z M 42.740876,277.51058 C 42.65243,277.38887 42.701011,277.25448 42.848325,277.21212 42.848325,277.21212 43.434864,277.0424 43.715631,276.79942 43.996541,276.55559 44.137711,276.20361 44.137711,275.74468 44.137711,275.4447 44.083415,275.19247 43.975252,274.98729 43.867088,274.78266 43.712059,274.61516 43.510306,274.48697 43.308555,274.35809 43.06708,274.26357 42.785885,274.20438 42.50426,274.14546 42.124331,274.12821 42.124331,274.12821 41.970302,274.12145 41.718683,274.11593 41.564939,274.11593 H 38.745837 C 38.592093,274.11593 38.46607,274.23722 38.46607,274.38611 V 279.35539 C 38.46607,279.50414 38.591951,279.59907 38.745837,279.59907 H 39.412963 C 39.566992,279.59907 39.692873,279.50414 39.692873,279.35539 39.692873,279.35539 39.693302,277.37894 39.694587,277.37894 L 39.696444,277.37646 C 39.696444,277.37466 40.961112,277.37341 40.961112,277.37341 41.114855,277.37341 41.313464,277.47277 41.402481,277.5946 L 42.715299,279.37967 C 42.837322,279.53781 42.953344,279.5992 43.107231,279.5992 H 43.979252 C 44.133281,279.5992 44.157429,279.45902 44.104133,279.3863 Z M 42.210061,276.50151 C 42.037314,276.53973 41.842849,276.54759 41.842849,276.54759 41.689106,276.55408 41.437487,276.55932 41.283458,276.55932 H 39.97664 C 39.822611,276.55932 39.696731,276.43762 39.696731,276.28888 V 275.28216 C 39.696731,275.13342 39.822611,275.01185 39.97664,275.01185 H 41.283458 C 41.437487,275.01185 41.689106,275.01724 41.842849,275.02344 41.842849,275.02344 42.037314,275.03089 42.210061,275.06939 42.382808,275.10789 42.519834,275.16156 42.620139,275.23097 42.720872,275.30079 42.792743,275.38261 42.83618,275.47671 42.879045,275.57096 42.900906,275.67348 42.900906,275.78525 42.900906,275.89659 42.879045,275.99967 42.83618,276.09363 42.792743,276.18773 42.720872,276.26956 42.620139,276.33924 42.519834,276.40906 42.382808,276.46356 42.210061,276.50151 Z M 62.451306,274.11593 C 62.297563,274.11593 62.173111,274.2139 62.173111,274.35713 62.173111,274.42584 62.174825,277.53569 62.174825,277.53569 62.174825,277.68457 62.087523,277.71851 61.980647,277.61158 L 58.684882,274.31021 C 58.578004,274.20314 58.421404,274.11593 58.210507,274.11593 H 57.590676 C 57.395639,274.11593 57.31048,274.21638 57.31048,274.31808 V 279.40093 C 57.31048,279.50221 57.410356,279.59907 57.564671,279.59907 H 58.185359 C 58.339102,279.59907 58.446837,279.51821 58.446837,279.38133 58.446837,279.31276 58.449837,276.03278 58.449837,276.03278 58.449837,275.88432 58.536854,275.85037 58.643446,275.95758 L 62.07995,279.40769 C 62.189114,279.5131 62.321853,279.59907 62.557755,279.59907 H 63.024129 C 63.178158,279.59907 63.304039,279.47751 63.304039,279.32876 V 274.38624 C 63.304039,274.23736 63.178158,274.11607 63.024129,274.11607 H 62.451306 Z M 49.014058,277.21529 C 48.93933,277.34513 48.81645,277.34472 48.742579,277.2146 L 47.131847,274.35754 C 47.063262,274.22493 46.922807,274.11593 46.727199,274.11593 H 45.853463 C 45.699433,274.11593 45.573267,274.23722 45.573267,274.38611 V 279.34905 C 45.573267,279.49738 45.674286,279.59907 45.853463,279.59907 H 46.396565 C 46.550594,279.59907 46.661615,279.50524 46.661615,279.36188 46.661615,279.29316 46.663901,275.75226 46.66976,275.75226 46.675903,275.75226 48.68071,279.36092 48.68071,279.36092 48.753295,279.49172 48.931328,279.49227 49.005485,279.36202 49.005485,279.36202 51.026724,275.76261 51.032725,275.76261 51.039155,275.76261 51.036868,279.25867 51.036868,279.36188 51.036868,279.50524 51.155462,279.59907 51.309777,279.59907 H 51.93518 C 52.089496,279.59907 52.215091,279.52497 52.215091,279.32876 V 274.38624 C 52.215091,274.23736 52.089496,274.11607 51.93518,274.11607 H 51.097737 C 50.883983,274.11607 50.755387,274.22135 50.678801,274.35064 Z M 24.176376,276.85267 C 24.176376,279.53008 27.012339,279.66599 27.581018,279.66599 29.462944,279.66599 30.258236,279.17492 30.291243,279.15366 30.408979,279.0895 30.552292,278.95966 30.552292,278.71667 V 276.86854 C 30.552292,276.69827 30.408694,276.55973 30.232232,276.55973 H 27.867929 C 27.691181,276.55973 27.575159,276.69827 27.575159,276.86854 V 277.06006 C 27.575159,277.2306 27.691181,277.36956 27.867929,277.36956 H 29.235472 C 29.367497,277.36956 29.474803,277.47318 29.474803,277.60054 L 29.473517,278.4621 C 29.203324,278.56848 27.972806,278.91564 26.984048,278.68797 25.549778,278.35681 25.438042,277.21405 25.438042,276.87185 25.438042,276.58457 25.527202,275.14542 27.288677,274.99984 28.714517,274.88201 29.653408,275.43794 29.662696,275.44332 29.830299,275.52722 30.00376,275.46747 30.097206,275.2961 L 30.275097,274.94796 C 30.348968,274.80529 30.324106,274.65738 30.143786,274.53926 30.131784,274.53264 29.13231,274.00927 27.581303,274.00927 24.271822,274.00927 24.176376,276.56166 24.176376,276.85267 Z"
       id="path1196" />
    <g
       aria-label="FIT/TCX"
       transform="matrix(0.24910339,0,0,0.24910339,3.4071845,243.2923)"
       style="font-style:normal;font-weight:normal;font-size:40px;line-height:1.25;font-family:sans-serif;letter-spacing:0px;word-spacing:0px;fill:#000000;fill-opacity:1;stroke:none"
       id="flowRoot1236">
      <path
         d="M 103.67969,158.31641 H 89.324219 V 167.59375 H 102.03906 V 170.52344 H 89.324219 V 183.80469 H 85.808594 V 155.23047 H 103.67969 Z"
         style="fill:#000000;fill-opacity:1"
         id="path836"
         inkscape:connector-curvature="0" />
      <path
         d="M 112.39063,183.80469 H 108.83594 V 155.23047 H 112.39063 Z"
         style="fill:#000000;fill-opacity:1"
         id="path838"
         inkscape:connector-curvature="0" />
      <path
         d="M 140.59375,158.31641 H 130.02734 V 183.80469 H 126.47266 V 158.31641 H 116.23828 V 155.23047 H 140.59375 Z"
         style="fill:#000000;fill-opacity:1"
         id="path840"
         inkscape:connector-curvature="0" />
      <path
         d="M 157.39062,154.76172 144.14844,189.72266 142.27344,188.96094 155.47656,154 Z"
         style="fill:#000000;fill-opacity:1"
         id="path842"
         inkscape:connector-curvature="0" />
      <path
         d="M 184.55859,158.31641 H 173.99219 V 183.80469 H 170.4375 V 158.31641 H 160.20312 V 155.23047 H 184.55859 Z"
         style="fill:#000000;fill-opacity:1"
         id="path844"
         inkscape:connector-curvature="0" />
      <path
         d="M 211.57031,177.39844 Q 210.49609,179.85937 208.48437,181.51953 205.06641,184.39062 200.35937,184.39062 194.28516,184.39062 190.35937,180.11328 186.72656,176.10937 186.72656,169.625 186.72656,162.90625 190.69141,158.70703 194.48047,154.66406 200.20312,154.66406 208.19141,154.66406 211.375,161.51953 L 208.17187,163.00391 Q 205.76953,157.71094 200.24219,157.71094 196.17969,157.71094 193.44531,160.79687 190.57422,164.09766 190.57422,169.68359 190.57422,174.50781 193.01562,177.59375 195.86719,181.24609 200.37891,181.24609 205.96484,181.24609 208.60156,175.95312 Z"
         style="fill:#000000;fill-opacity:1"
         id="path846"
         inkscape:connector-curvature="0" />
      <path
         d="M 239.63672,183.80469 H 235.04687 L 226.88281,171.87109 218.875,183.80469 H 214.36328 L 224.75391,169.39062 214.63672,155.23047 H 219.12891 L 227,166.98828 234.92969,155.23047 H 239.40234 L 229.16797,169.35156 Z"
         style="fill:#000000;fill-opacity:1"
         id="path848"
         inkscape:connector-curvature="0" />
    </g>
    <use
       transform="matrix(0.88936614,0,0,0.85885517,-189.09111,234.76762)"
       id="use1201"
       overflow="visible"
       xlink:href="#a-2"
       style="clip-rule:evenodd;overflow:visible;fill:#007dc3;fill-rule:evenodd"
       x="0"
       y="0"
       width="100%"
       height="100%" />
  </g>
</svg>
