<?xml version="1.0" encoding="UTF-8" standalone="no"?>
<!-- Created with Inkscape (http://www.inkscape.org/) -->

<svg
   xmlns:dc="http://purl.org/dc/elements/1.1/"
   xmlns:cc="http://creativecommons.org/ns#"
   xmlns:rdf="http://www.w3.org/1999/02/22-rdf-syntax-ns#"
   xmlns:svg="http://www.w3.org/2000/svg"
   xmlns="http://www.w3.org/2000/svg"
   xmlns:sodipodi="http://sodipodi.sourceforge.net/DTD/sodipodi-0.dtd"
   xmlns:inkscape="http://www.inkscape.org/namespaces/inkscape"
   width="256"
   height="256"
   viewBox="0 0 67.733331 67.733335"
   version="1.1"
   id="svg8"
   inkscape:version="0.92.5 (2060ec1f9f, 2020-04-08)"
   sodipodi:docname="icon256.svg"
   inkscape:export-filename="/home/kei/Documents/GitHub/330k-hugo/static/software/gpx-tcx-converter/icon256.png"
   inkscape:export-xdpi="96"
   inkscape:export-ydpi="96">
  <defs
     id="defs2" />
  <sodipodi:namedview
     id="base"
     pagecolor="#ffffff"
     bordercolor="#666666"
     borderopacity="1.0"
     inkscape:pageopacity="0.0"
     inkscape:pageshadow="2"
     inkscape:zoom="2"
     inkscape:cx="120.68696"
     inkscape:cy="98.040873"
     inkscape:document-units="mm"
     inkscape:current-layer="g1055"
     showgrid="false"
     units="px"
     inkscape:window-width="1848"
     inkscape:window-height="1016"
     inkscape:window-x="72"
     inkscape:window-y="27"
     inkscape:window-maximized="1" />
  <metadata
     id="metadata5">
    <rdf:RDF>
      <cc:Work
         rdf:about="">
        <dc:format>image/svg+xml</dc:format>
        <dc:type
           rdf:resource="http://purl.org/dc/dcmitype/StillImage" />
        <dc:title />
      </cc:Work>
    </rdf:RDF>
  </metadata>
  <g
     inkscape:label="レイヤー 1"
     inkscape:groupmode="layer"
     id="layer1"
     transform="translate(0,-229.26665)">
    <path
       inkscape:connector-curvature="0"
       d="M 56.322006,284.25545 C 56.322006,284.25545 57.493708,284.25545 57.493708,283.07408 V 241.73591 L 46.950796,231.10602 H 20.011288 C 20.011288,231.10602 18.839584,231.10602 18.839584,232.28739 V 283.07166 C 18.839584,284.25545 20.011288,284.25545 20.011288,284.25545 Z M 21.255466,233.52191 H 45.414294 V 240.76955 C 45.414294,243.18543 47.830178,243.18543 47.830178,243.18543 H 55.077825 V 281.83957 H 21.255466 Z"
       id="path934"
       style="stroke-width:0.06710786" />
    <g
       id="g1055"
       transform="translate(31.430896,10.009244)">
      <rect
         style="fill:#cdffa8;fill-opacity:1;stroke:#000000;stroke-width:1.69628119;stroke-miterlimit:4;stroke-dasharray:none;stroke-opacity:1"
         id="rect1048"
         width="40.661419"
         height="21.47019"
         x="-28.437885"
         y="231.90308"
         rx="1.6962812"
         ry="1.6962812" />
      <g
         aria-label="GPX"
         transform="matrix(0.33925624,0,0,0.33925624,-23.486348,231.61698)"
         style="font-style:normal;font-weight:normal;font-size:40px;line-height:1.25;font-family:sans-serif;letter-spacing:0px;word-spacing:0px;fill:#000000;fill-opacity:1;stroke:none"
         id="flowRoot815">
        <path
           d="M 31.054687,42.271484 Q 29.609375,44.068359 26.855469,45.591797 23.59375,47.349609 19.746094,47.349609 13.574219,47.349609 9.7070313,43.228516 5.8984375,39.185547 5.8984375,32.623047 5.8984375,25.865234 9.8632813,21.666016 13.652344,17.623047 19.375,17.623047 27.285156,17.623047 30.566406,24.478516 L 27.382812,25.962891 Q 24.921875,20.669922 19.433594,20.669922 15.351563,20.669922 12.617188,23.755859 9.7460938,27.056641 9.7460938,32.603516 9.7460938,37.583984 12.265625,40.767578 15.078125,44.283203 19.941406,44.283203 25.15625,44.283203 27.773437,41.119141 V 35.552734 H 21.425781 V 32.837891 H 31.054687 Z"
           id="path1095"
           inkscape:connector-curvature="0" />
        <path
           d="M 37.460937,18.189453 H 45.78125 Q 56.699219,18.189453 56.699219,26.392578 56.699219,35.064453 45.566406,35.064453 H 40.976562 V 46.763672 H 37.460937 Z M 40.976562,32.271484 H 44.902344 Q 53.027344,32.271484 53.027344,26.431641 53.027344,21.021484 45.488281,21.021484 H 40.976562 Z"
           id="path1097"
           inkscape:connector-curvature="0" />
        <path
           d="M 84.765625,46.763672 H 80.175781 L 72.011719,34.830078 64.003906,46.763672 H 59.492187 L 69.882812,32.349609 59.765625,18.189453 H 64.257812 L 72.128906,29.947266 80.058594,18.189453 H 84.53125 L 74.296875,32.310547 Z"
           id="path1099"
           inkscape:connector-curvature="0" />
      </g>
    </g>
    <g
       id="g1062"
       transform="matrix(1.2822283,0,0,1.2822283,-1.3250144,-80.975971)">
      <path
         style="fill:#ffbcb8;fill-opacity:1;stroke:#000000;stroke-width:1.32291663;stroke-miterlimit:4;stroke-dasharray:none;stroke-opacity:1"
         d="M 20.873683,276.13962 H 49.939378 C 50.672274,276.13962 51.262295,276.72964 51.262295,277.46253 V 291.56114 C 51.262295,292.29403 50.672274,292.88405 49.939378,292.88405 H 20.873683 C 20.140787,292.88405 19.550766,292.29403 19.550766,291.56114 V 277.46253 C 19.550766,276.72964 20.140787,276.13962 20.873683,276.13962 Z"
         id="rect1044"
         inkscape:connector-curvature="0" />
      <g
         aria-label="TCX"
         transform="matrix(0.26458333,0,0,0.26458333,17.934212,247.10482)"
         style="font-style:normal;font-weight:normal;font-size:40px;line-height:1.25;font-family:sans-serif;letter-spacing:0px;word-spacing:0px;fill:#000000;fill-opacity:1;stroke:none"
         id="flowRoot823">
        <path
           d="M 50.675781,130.16992 H 40.109375 V 155.6582 H 36.554687 V 130.16992 H 26.320312 V 127.08398 H 50.675781 Z"
           style="font-style:normal;font-variant:normal;font-weight:normal;font-stretch:normal;font-size:40px;font-family:sans-serif;-inkscape-font-specification:'sans-serif, Normal';font-variant-ligatures:normal;font-variant-caps:normal;font-variant-numeric:normal;font-feature-settings:normal;text-align:start;writing-mode:lr-tb;text-anchor:start"
           id="path1088"
           inkscape:connector-curvature="0" />
        <path
           d="M 77.6875,149.25195 Q 76.613281,151.71289 74.601562,153.37305 71.183594,156.24414 66.476562,156.24414 60.402344,156.24414 56.476562,151.9668 52.84375,147.96289 52.84375,141.47852 52.84375,134.75977 56.808594,130.56055 60.597656,126.51758 66.320312,126.51758 74.308594,126.51758 77.492187,133.37305 L 74.289062,134.85742 Q 71.886719,129.56445 66.359375,129.56445 62.296875,129.56445 59.5625,132.65039 56.691406,135.95117 56.691406,141.53711 56.691406,146.36133 59.132812,149.44727 61.984375,153.09961 66.496094,153.09961 72.082031,153.09961 74.71875,147.80664 Z"
           style="font-style:normal;font-variant:normal;font-weight:normal;font-stretch:normal;font-size:40px;font-family:sans-serif;-inkscape-font-specification:'sans-serif, Normal';font-variant-ligatures:normal;font-variant-caps:normal;font-variant-numeric:normal;font-feature-settings:normal;text-align:start;writing-mode:lr-tb;text-anchor:start"
           id="path1090"
           inkscape:connector-curvature="0" />
        <path
           d="M 105.75391,155.6582 H 101.16406 L 93,143.72461 84.992187,155.6582 H 80.480469 L 90.871094,141.24414 80.753906,127.08398 H 85.246094 L 93.117187,138.8418 101.04688,127.08398 H 105.51953 L 95.285156,141.20508 Z"
           style="font-style:normal;font-variant:normal;font-weight:normal;font-stretch:normal;font-size:40px;font-family:sans-serif;-inkscape-font-specification:'sans-serif, Normal';font-variant-ligatures:normal;font-variant-caps:normal;font-variant-numeric:normal;font-feature-settings:normal;text-align:start;writing-mode:lr-tb;text-anchor:start"
           id="path1092"
           inkscape:connector-curvature="0" />
      </g>
    </g>
    <path
       style="fill:none;stroke:#000000;stroke-width:2.03553748;stroke-linecap:butt;stroke-linejoin:round;stroke-miterlimit:4;stroke-dasharray:none;stroke-opacity:1"
       d="M 8.9902722,266.50106 V 286.17207 H 19.425505"
       id="path1064"
       inkscape:connector-curvature="0"
       sodipodi:nodetypes="ccc" />
    <path
       sodipodi:type="star"
       style="fill:#000000;fill-opacity:1;stroke:#000000;stroke-width:2.06030869;stroke-linecap:butt;stroke-linejoin:round;stroke-miterlimit:4;stroke-dasharray:none;stroke-opacity:1"
       id="path1066"
       sodipodi:sides="3"
       sodipodi:cx="15.110514"
       sodipodi:cy="286.17206"
       sodipodi:r1="4.314991"
       sodipodi:r2="2.1574955"
       sodipodi:arg1="2.0943951"
       sodipodi:arg2="3.1415927"
       inkscape:flatsided="false"
       inkscape:rounded="0"
       inkscape:randomized="0"
       d="M 12.953018,289.90895 12.953018,286.17206 12.953018,282.43517 16.189262,284.30361 19.425505,286.17206 16.189261,288.0405 Z"
       inkscape:transform-center-x="-1.0787474"
       inkscape:transform-center-y="-2.1369169e-05" />
  </g>
</svg>
